<svg width="1440" height="850" viewBox="0 0 1440 850" fill="none" xmlns="http://www.w3.org/2000/svg">
<path d="M1237.71 -101C1237.71 -101 1084.58 -68.5696 1078.27 18.0739C1071.97 104.717 1309.87 35.2604 1214.63 216.074C1119.39 396.887 1033.31 401.363 1078.27 514.074C1123.23 626.785 1243.96 685.953 1384.21 641.2C1524.46 596.446 1537.66 309.074 1537.66 309.074" stroke="#D0D5F6" stroke-width="2"/>
<path d="M1279.7 -101C1279.7 -101 1159.58 -72.5186 1154.63 3.57478C1149.68 79.6681 1336.31 18.6685 1261.59 177.465C1186.88 336.262 1119.36 340.192 1154.63 439.179C1189.9 538.165 1284.6 590.129 1394.62 550.825C1504.64 511.521 1515 259.141 1515 259.141" stroke="#D0D5F6" stroke-width="2"/>
<path d="M1315.93 -103C1315.93 -103 1225.03 -78.159 1221.29 -11.7919C1217.54 54.5752 1358.77 1.37259 1302.23 139.872C1245.69 278.371 1194.6 281.799 1221.29 368.133C1247.98 454.468 1319.64 499.789 1402.9 465.509C1486.16 431.229 1494 211.108 1494 211.108" stroke="#D0D5F6" stroke-width="2"/>
<path d="M180.29 1305C180.29 1305 333.42 1272.57 339.727 1185.93C346.034 1099.28 108.129 1168.74 203.369 987.926C298.61 807.113 384.687 802.637 339.727 689.926C294.767 577.215 174.04 518.047 33.7895 562.8C-106.461 607.554 -119.663 894.926 -119.663 894.926" stroke="#D0D5F6" stroke-width="2"/>
<path d="M138.3 1305C138.3 1305 258.425 1276.52 263.372 1200.43C268.32 1124.33 81.6932 1185.33 156.406 1026.53C231.118 867.738 298.641 863.808 263.372 764.821C228.103 665.835 133.398 613.871 23.3773 653.175C-86.6435 692.479 -97 944.859 -97 944.859" stroke="#D0D5F6" stroke-width="2"/>
<path d="M102.065 1307C102.065 1307 192.97 1282.16 196.714 1215.79C200.458 1149.42 59.2273 1202.63 115.766 1064.13C172.305 925.629 223.404 922.201 196.714 835.867C170.024 749.532 98.3554 704.211 15.0964 738.491C-68.1626 772.771 -76 992.892 -76 992.892" stroke="#D0D5F6" stroke-width="2"/>
</svg>
